<svg xmlns="http://www.w3.org/2000/svg" width="230.5" height="74.2" viewBox="0 0 230.5 74.2"><g fill="#1E1E1E"><path d="M204.4 27.9c.6.3.3 1.3.3 2.1s.1 1.7-.1 2.3c-.8.2-.4-.8-.8-.9-4.4-.2-9.2 0-13.7-.1-.2 1.6 0 3.6-.1 5.3 1.9.2 4.9.1 7.3.1.9 0 2 .2 2.4 0 .5-.2.4-.8.8-.9.4.1.2.6.2.9 0 1 .1 2.5-.1 3.3-.7.1-.3-.9-.8-.9h-9.7c-.2 1.7 0 3.9-.1 5.9 4.5.2 9.7.2 14.2 0 .5 0 .1-1 .7-.9.4.1.2.6.2.9 0 .9.1 2.4-.1 3.2-.7.1-.3-.9-.9-.8-5.9-.1-12.1.1-17.8-.1-.1-.7.8-.3.8-.8.2-3.4.1-8.3.1-12.5 0-1.4.3-4-.4-4.5-.1-.1-.7.2-.5-.3.2-.4.7-.2.9-.2 5.2-.2 11.4.2 16.5-.1.5-.1.2-.9.7-1zM135.3 28.8c4.9-.5 8.8 1.6 10.6 4 3.4 4.7 1 11-2.7 13.2-3.8 2.3-10.2 1.9-13.4-.6-2-1.6-3.7-4.8-3.3-8.4.2-1.7 1-3.5 1.5-4.1 1.4-2.2 4.2-3.7 7.3-4.1zm-4.5 4.7c-1.6 1.8-2.3 5.7-.7 8.4 3.1 5.3 14.6 4.7 14.7-3.7 0-1.9-1-4-1.9-4.9-1.5-1.5-4.2-2.4-6.9-2.1-2.7.2-4.1 1-5.2 2.3zM117.2 37.4c.8.3 1.6.6 2.2 1.2 1.8 1.7 1.6 5.6.1 7.2-1 1-2.8 1.4-4.7 1.6-3.9.2-9-.1-12.8-.1-.2-.8.9-.2.9-.7.2-5.3.2-11.4 0-16.7 0-.5-1 0-.9-.6 0-.1 0-.2.1-.2 3.6.2 8.8-.3 12.6 0 1.3.1 2.6.3 3.5.8 2.3 1.3 3 7.1-1 7.5zm-11.3-.9c2.7-.2 6 .3 8.7 0 .9-.1 2-.4 2.4-.9.7-1 .4-2.6-.1-3.3-1.5-2.1-7.7-.5-10.9-1-.3 1.4-.1 3.4-.1 5.2zm0 8.6h6c2.1 0 4.3.1 5.2-.7.9-.8 1-3.4.1-4.5-.8-1.1-3-1-5-1H106c-.3 1.8-.1 4.1-.1 6.2zM155.5 29.2c.1.6-1.1.1-1.2.6.1 1.2.8 2.2 1.3 3.4 1.3 3.3 2.7 6.9 4.1 10.3 1.7-4.4 3.3-8.9 4.9-13.4.1-.7-1-.2-.9-.8.2-.4.8-.2 1.2-.2 1.1 0 2.8-.1 3.9.1.2.7-.8.2-.8.7 1.6 4.6 3.3 9.1 5 13.5 1.3-3.2 2.7-7.7 4.1-11.6.3-1 1-1.7 0-2.1-.1-.1-.6 0-.5-.3 0-.5.7-.3 1-.3h2.6c.4 0 .9-.2 1 .2 0 .6-.9.2-1 .6-2 5.5-4 10.9-5.8 16.5-.1.6.9.2.8.8-.1.4-.7.2-1 .2h-2.5c-.3 0-.9.2-.9-.2-.2-.6.8-.1.8-.5-.5-2.4-1.7-4.7-2.6-7.1-.9-2.4-1.8-4.8-2.7-7.1-1.4 3.3-3 8.2-4.4 12.2-.2.6-.7 1.4-.5 1.8.2.5.8.3.9.7-.2.4-.7.2-1.2.2h-2.7c-.4 0-.9.2-1-.2-.1-.6 1-.1.9-.6-1.7-4.7-3.8-9.8-5.8-14.7-.3-.7-.5-1.6-.8-2-.2-.3-.9-.3-.9-.7 0-.1 0-.2.1-.2h3.8c.1 0 .7-.2.8.2zM224.9 39.1c1.3 2.3 3.2 5 4.8 7.4.1.4.8.1.7.6-.1.4-.7.2-1 .2-1 0-2.5.1-3.5-.1-.2-.7.6-.2.6-.6-.5-1.5-1.4-2.7-2.2-3.9-.8-1.2-1.6-2.4-2.3-3.7h-6.6c-.2 2.2-.2 5.1 0 7.3 0 .5 1 .1.9.7-.1.4-.7.2-1 .2-1 0-2.6.1-3.6-.1-.1-.7.8-.3.9-.7.2-5.3.2-11.3 0-16.6 0-.5-1-.1-.9-.7 0-.1 0-.2.1-.2 3.9.2 9.1-.3 13.3 0 1.3.1 2.5.5 3.2 1.2 1.4 1.4 2.1 5 .6 7.1-.6 1.2-2 1.7-4 1.9zm-9.5-2.4h5.3c1.9 0 4.2.3 5.2-.2 1.2-.6 1.7-3.5.5-4.7-.9-.9-3.3-.6-5.1-.6h-5.9c-.2 1.6 0 3.7 0 5.5z"/></g><path fill="#00ACEE" d="M71.7 5.4C60.5 5.4 52.2 17.2 56 25.7c15.8 0 9.4-14.6 15.7-20.3z"/><path fill="#FFCC2F" d="M75.3 37.3c0-3.8-17.9-5.6-27.9-6.2S1 37.4 5.3 46.5s15.3 18.9 27.6 18.9c6.4 0 13.8-4.5 14.2-12.8 7.3-2.4 28.2-2.6 28.2-15.3z"/><path fill="#2BAF2B" d="M66.1 39.8c1.2 1.2-2.5 4.3-5.7 2.8 1.4 3.2-4.9 5.9-8 3.6.3 2.6-6 4.1-8 1.2.5 1.4.9 2.5 1.4 3.3 1 1.4 2.5 2.5 8.6 2.5 9.5 0 24.9-7.2 24.9-12.5 0-4.4-1.6-4.8-4.5-4.5-2.8.3-17.7 1.9-20.8 1.2 1.8.4 10.4 2.1 12.1 2.4z"/><path fill="#EF5734" d="M32.7 2.9C14.5 2.9-3.7 21 5 46c5.9 3.6 13.8 2.1 15.5.3 2.7.9 5 1.2 7.2 1.2 11.1 0 20.5-11.7 20.5-26.4C48.2 6 38.3 2.9 32.7 2.9z"/><path fill="#FFCC2F" d="M25.3 19.1c0 4.1 3.3 7.4 7.4 7.4s7.4-3.3 7.4-7.4c0-4.1-3.3-7.4-7.4-7.4-4.1 0-7.4 3.3-7.4 7.4z"/><path fill="#543729" d="M28.2 19.1c0 2.4 2 4.4 4.4 4.4s4.4-2 4.4-4.4-2-4.4-4.4-4.4c-2.4 0-4.4 1.9-4.4 4.4z"/><ellipse fill="#FFF" cx="32.6" cy="17.1" rx="2.6" ry="1.6"/><path fill="#CECECE" d="M47.7 15.3c-3.3 1.9-3.2 8.3-1.7 11.3 2.9-1.1 6.9-3.2 7.5-3.6.6-.4-.3-1.8 2.1-1.8 3.4 0 6.4 1 7.3 1.4-.6-1.1-7.5-7.3-15.2-7.3z"/><path fill="#543729" d="M82.8 36.3c-4.3-4.2-26.1-6.8-32.9-7.5.3-.8.6-1.6.8-2.4.9-.4 1.9-.8 3-1.1.1.4.7 1.8 1.1 2.5 13.8.4 14.5-10.2 15-13.1.5-2.8.5-5.6 5.2-10.6-7-2.1-17.2 3.2-20.6 11-1.3-.5-2.6-.8-3.8-1C49.8 10.2 45.1 0 32.7 0c-8 0-16.1 3.3-22.2 9.1-3.3 3.1-5.8 6.8-7.6 11C1 24.6 0 29.5 0 34.8c0 18.4 12.6 34.5 19.6 34.5 3.1 0 5.8-2.3 6.4-4.4.5 1.4 2.1 5.9 2.7 7 .8 1.7 4.4 3.1 6 1.4 2 1.1 5.8 1.8 7.8-1.2 3.9.8 7.4-1.5 7.5-4.3 1.9-.1 2.9-2.8 2.4-4.9-.3-1.6-3.6-7.3-4.9-9.2 2.6 2.1 9 2.7 9.8 0 4.1 3.2 10.5 1.5 11-1.1 5 1.3 10.7-1.6 9.8-5 8-.6 7-9.2 4.7-11.3zM61.9 22.1c-2.1-.8-4.8-1.4-6.7-1.4-2.7 0-4.3 1.5-6.8 1.5-.5 0-1.8 0-2.8-.4.7.7 1.5 1.1 3.1 1.1 1 0 2.8-.5 4.4-.9 0 .3.1.6.1 1-2.9.7-5.9 2.5-6.8 3-1.9-4.3-.3-8.3 1.3-10.2 6.9 0 12.5 4.7 14.2 6.3zm3-.3l-1.1-1c-1.1-1-2.2-1.9-3.4-2.8 1.7-3.4 3.9-7.2 6.6-9.5-3 1.2-6 4.9-7.8 8.7-.9-.6-1.8-1.1-2.7-1.5 2.5-5.3 8.2-9.6 14.5-10-4.1 3.9-2.5 11.6-6.1 16.1zm-8.7 3.6c-.5-1-.9-2.7-.9-3.7.8 0 2.3.3 2.5.3-.1.5-.1 1.5-.1 1.6.1-.3.6-1.1.7-1.5 1.5.3 3.5.8 4.6 1.3-1.2.9-3.6 1.9-6.8 2zm-9.4-11.9c-5.5 5.6-3.3 12.6-1.3 15.8-2.9 4.7-8.5 8-15 9.5 7.3 0 11.6-1.9 14.1-3.7 1.6-1.2 2.5-2.3 2.9-3 10.8.7 28 4.2 29.7 5.3.7.5 1.4 1.5 1.5 2.4-8.1-1.1-22.8-2.3-26.7-2.5 2.7.4 22.6 4.2 26.1 5-1.1 1.7-3.4 2.9-7 2.1 1.9 2.7-1.8 5.8-7.1 4.1 1.2 2.6-3.5 5-8.9 2.2.1 2.6-6.6 2.9-9.3 0 0 .3.4 1 .5 1.3-.9 7.6-7.1 12.3-13.5 12.3-15.6 0-29.3-12.7-29.3-29.6 0-17.9 13.2-31.2 29.1-31.2 9.3.1 13.4 7.3 14.2 10z"/></svg>